<svg xmlns="http://www.w3.org/2000/svg" width="19.046" height="20.367" viewBox="0 0 19.046 20.367"><defs><style>.a{fill:#ff6c00;}</style></defs><g transform="translate(-9.63)"><path class="a" d="M16.694,136.993l.472-.272a.4.4,0,0,0,.147-.549l-.894-1.548a.4.4,0,0,0-.549-.147l-.472.272a.4.4,0,0,1-.6-.348v-.545a.4.4,0,0,0-.4-.4H12.6a.4.4,0,0,0-.4.4v.545a.4.4,0,0,1-.6.348l-.472-.272a.4.4,0,0,0-.549.147l-.894,1.548a.4.4,0,0,0,.147.549l.472.272a.4.4,0,0,1,0,.7l-.472.272a.4.4,0,0,0-.147.549l.894,1.548a.4.4,0,0,0,.549.147l.472-.272a.4.4,0,0,1,.6.348v.545a.4.4,0,0,0,.4.4h1.788a.4.4,0,0,0,.4-.4v-.545a.4.4,0,0,1,.6-.348l.472.272a.4.4,0,0,0,.549-.147l.894-1.548a.4.4,0,0,0-.147-.549l-.472-.272A.4.4,0,0,1,16.694,136.993Zm-3.2,1.541a1.193,1.193,0,1,1,1.193-1.193A1.193,1.193,0,0,1,13.5,138.534Z" transform="translate(0 -124.301)"/><path class="a" d="M17.451,21.463a.552.552,0,0,0-.781.781l.987.987a7.284,7.284,0,0,0-6.881,6.618l.082-.141a1.315,1.315,0,0,1,1.136-.656h.03a6.18,6.18,0,0,1,5.611-4.713l-.964.964a.552.552,0,0,0,.781.781l1.92-1.92a.552.552,0,0,0,0-.781Z" transform="translate(-1.067 -19.84)"/><path class="a" d="M179.664,4.448a2.224,2.224,0,1,0-2.224-2.224A2.226,2.226,0,0,0,179.664,4.448Z" transform="translate(-156.302 0)"/><path class="a" d="M155.35,82.708V79.651A1.957,1.957,0,0,0,154,77.791h0l-1.176-.195a.2.2,0,0,0-.243.121l-1.335,3.662a.241.241,0,0,1-.453,0l-1.335-3.662a.2.2,0,0,0-.185-.13c-.019,0-1.234.2-1.234.2a1.97,1.97,0,0,0-1.353,1.872v3.047a.827.827,0,0,0,.827.827h7.011A.827.827,0,0,0,155.35,82.708Z" transform="translate(-127.656 -72.266)"/><path class="a" d="M168.037,162.933a1.188,1.188,0,0,1-1.2,1.065,6.18,6.18,0,0,1-5.69,5.091l.964-.964a.552.552,0,0,0-.781-.781l-1.92,1.92a.552.552,0,0,0,0,.781l1.92,1.92a.552.552,0,0,0,.781-.781l-.987-.987a7.283,7.283,0,0,0,6.91-7.264Z" transform="translate(-139.36 -151.76)"/><path class="a" d="M202.823,75.965a.273.273,0,0,0-.2-.084h-.565a.273.273,0,0,0-.2.084.262.262,0,0,0-.035.309l.3.456-.141,1.194.279.741a.085.085,0,0,0,.16,0l.279-.741-.141-1.194.3-.456A.262.262,0,0,0,202.823,75.965Z" transform="translate(-178.976 -70.677)"/></g></svg>