<svg xmlns="http://www.w3.org/2000/svg" width="19.046" height="14.966" viewBox="0 0 19.046 14.966"><defs><style>.a{fill:#3d90fa;}</style></defs><g transform="translate(0 -54.804)"><g transform="translate(0 54.804)"><path class="a" d="M11.24,64.96a6.749,6.749,0,0,0,2.726-1.982,4.234,4.234,0,0,0,0-5.463,6.75,6.75,0,0,0-2.726-1.982A9.573,9.573,0,0,0,7.482,54.8a9.576,9.576,0,0,0-3.757.728A6.75,6.75,0,0,0,1,57.514a4.293,4.293,0,0,0-1,2.732,4.177,4.177,0,0,0,.755,2.381,6.21,6.21,0,0,0,2.072,1.881q-.106.255-.218.468a2.694,2.694,0,0,1-.266.409q-.154.2-.239.308t-.276.314q-.191.2-.244.266c0-.007-.014.009-.043.048s-.044.057-.048.053-.018.014-.043.053l-.037.058-.027.053a.228.228,0,0,0-.021.064.416.416,0,0,0-.005.069.214.214,0,0,0,.011.069.352.352,0,0,0,.122.223.332.332,0,0,0,.218.085h.032a8.911,8.911,0,0,0,.914-.17,8.937,8.937,0,0,0,2.955-1.36,10.674,10.674,0,0,0,1.871.17A9.564,9.564,0,0,0,11.24,64.96Z" transform="translate(0 -54.804)"/><path class="a" d="M187.61,164.3a4.149,4.149,0,0,0-.043-4.831,6.3,6.3,0,0,0-2.168-1.892,5.47,5.47,0,0,1-.468,4.315,7.114,7.114,0,0,1-2.041,2.253,9.41,9.41,0,0,1-2.806,1.371,11.228,11.228,0,0,1-3.284.478q-.319,0-.935-.042a8.931,8.931,0,0,0,5.016,1.4,10.677,10.677,0,0,0,1.871-.17,8.487,8.487,0,0,0,3.869,1.531.321.321,0,0,0,.234-.074.393.393,0,0,0,.138-.233c0-.043,0-.066.011-.069s.009-.027-.005-.069l-.021-.064-.027-.053a.509.509,0,0,0-.037-.058.459.459,0,0,0-.043-.053c-.01-.011-.026-.028-.048-.053l-.043-.048q-.053-.064-.244-.266t-.276-.313q-.085-.112-.239-.308a2.69,2.69,0,0,1-.266-.409q-.112-.213-.218-.468A6.236,6.236,0,0,0,187.61,164.3Z" transform="translate(-169.319 -153.751)"/></g></g></svg>