<svg xmlns="http://www.w3.org/2000/svg" width="12.356" height="17.055" viewBox="0 0 12.356 17.055"><defs><style>.a{fill:#572284;}</style></defs><g transform="translate(-247 -242)"><ellipse class="a" cx="3.625" cy="3.624" rx="3.625" ry="3.624" transform="translate(249.554 242)"/><path class="a" d="M18.877,35.606H15.8a4.646,4.646,0,0,0-4.64,4.64v3.762l.009.059.259.081a21.131,21.131,0,0,0,6.309,1.018,12.967,12.967,0,0,0,5.51-1.034l.242-.123h.025V40.246A4.645,4.645,0,0,0,18.877,35.606Zm-.821,7.3-.664.971a.047.047,0,0,1-.039.021h0a.047.047,0,0,1-.039-.022L16.7,42.9a.049.049,0,0,1-.007-.029L17,38.16a.047.047,0,0,1,.047-.044h.64a.048.048,0,0,1,.048.044l.331,4.716A.046.046,0,0,1,18.056,42.906Zm-.3-4.933H17l-.661-1.367a.237.237,0,0,1,.237-.237h1.588a.237.237,0,0,1,.237.237Z" transform="translate(235.838 213.89)"/></g></svg>