<svg xmlns="http://www.w3.org/2000/svg" width="18.093" height="15.833" viewBox="0 0 18.093 15.833"><defs><style>.a{fill:#707070;}</style></defs><path class="a" d="M17.266,39.687l-3.414-1.279V34.573a1.272,1.272,0,0,0-.827-1.191L9.492,32.057a1.257,1.257,0,0,0-.894,0L5.064,33.382a1.272,1.272,0,0,0-.827,1.191v3.834L.823,39.687A1.274,1.274,0,0,0,0,40.878v3.891a1.273,1.273,0,0,0,.7,1.138l3.534,1.767a1.265,1.265,0,0,0,1.138,0l3.672-1.838,3.672,1.838a1.265,1.265,0,0,0,1.138,0l3.534-1.767a1.273,1.273,0,0,0,.7-1.138V40.878A1.272,1.272,0,0,0,17.266,39.687Zm-4.615-1.251-3,1.127v-2.41l3-1.308ZM5.442,34.524l3.6-1.35,3.6,1.35v.021l-3.6,1.463-3.6-1.463ZM8.41,44.811l-3,1.5v-2.8l3-1.371Zm0-3.958-3.6,1.463L1.2,40.853v-.021l3.6-1.35,3.6,1.35Zm8.481,3.958-3,1.5v-2.8l3-1.371Zm0-3.958-3.6,1.463-3.6-1.463v-.021l3.6-1.35,3.6,1.35Z" transform="translate(0 -31.975)"/></svg>